<svg width="897" height="1063" viewBox="0 0 897 1063" fill="none" xmlns="http://www.w3.org/2000/svg">
<g clip-path="url(#clip0)">
<path fill-rule="evenodd" clip-rule="evenodd" d="M465.875 623.85L461.045 621.679L459.895 618.668L458.115 620.364L457.667 620.162L462.655 615.41L465.875 623.85Z" fill="#80CFF1"/>
<path fill-rule="evenodd" clip-rule="evenodd" d="M393.786 585.881L391.286 586.55L393.105 568.47L376.659 576.941L375.976 575.457L395.865 565.213L393.786 585.881Z" fill="#80CFF1"/>
<path fill-rule="evenodd" clip-rule="evenodd" d="M839.744 315.499L580.213 1018.3L579.349 1016.42L836.984 318.756L138.878 61.3701L136.503 56.2198L839.744 315.499ZM488.533 819.51L488.46 819.352L488.584 819.366L488.533 819.51ZM510.445 757.52L477.929 796.517L477.914 796.483L510.477 757.429L510.445 757.52ZM432.581 698.194L432.224 697.419C432.613 697.259 432.98 697.069 433.326 696.85C433.127 697.323 432.877 697.774 432.581 698.194V698.194ZM417.214 664.873L417.005 664.419L449.308 621.463L445.901 617.888L448.974 614.96L452.067 618.206L418.908 662.3L469.351 629.907L470.712 630.518L417.214 664.873ZM410.374 650.043L409.356 647.835L427.845 642.698L429.68 644.679L410.374 650.043ZM422.898 631.124L422.483 630.676L419.529 633.838L407.405 643.605L407.057 642.851L438.317 617.669L439.786 617.52L422.898 631.124ZM396.854 618.894L396.045 618.976L395.659 618.14L420.641 602.326L420.89 605.458L439.084 590.565L440.145 590.694L418.131 608.715L417.881 605.583L396.854 618.894ZM412.691 560.814L410.976 557.699L470.229 555.811L473.361 558.881L412.691 560.814ZM468.389 548.045L463.079 542.84L469.82 544.467L469.679 548.357L468.389 548.045ZM473.18 524.617L473.391 518.803L486.031 531.479L485.105 536.575L473.18 524.617ZM464.817 510.204L468.205 513.601L464.54 515.951L456.887 508.277L464.817 510.204ZM434.094 520.391L419.808 542.435L419.402 542.061L433.697 520.002L434.094 520.391ZM392.447 523.068L370.132 562.788L369.713 561.879L391.834 522.504L392.447 523.068ZM363.959 510.673L364.163 510.295L363.671 510.581L343.008 503.975L340.768 499.12L375.692 510.285L376.744 514.761L363.959 510.673ZM342.299 438.655L342.091 437.223L347.048 434.174L348.16 435.05L342.299 438.655ZM344.837 426.997L344.179 426.479L348.867 422.722L350.354 422.574L344.837 426.997ZM324.167 416.132L321.213 422.472L319.911 422.601L323.259 415.416L324.167 416.132ZM303.932 415.457L306.138 412.157L314.623 412.82L314.604 416.291L303.932 415.457ZM317.541 380.665L317.555 378.114L347.532 370.405L351.77 371.862L317.541 380.665ZM346.473 365.834L345.676 365.56L343.171 360.372L346.685 358.677L348.693 362.837L350.907 361.769L351.661 363.332L346.473 365.834ZM317.681 354.739L317.692 352.781L324.696 349.471L326.275 350.679L317.681 354.739ZM307.211 336.093L298.51 349.34L298.004 349.166L306.798 335.777L307.211 336.093ZM278.709 300.255L263.077 330.667L262.564 329.554L279.04 297.5L278.709 300.255ZM247.723 297.37L246.619 294.977L271.533 289.408L273.392 291.633L247.723 297.37ZM202.322 198.931L200.881 195.808L216.42 195.313L219.552 198.382L202.322 198.931ZM356.047 293.416L364.968 289.202L366.834 290.274L356.701 295.061L356.047 293.416ZM352.004 281.753L351.623 282.334L334.445 304.807L363.537 322.478L366.12 328.98L353.387 321.246L353.616 320.274L352.505 320.711L331.685 308.064L348.864 285.591L351.553 281.494L352.004 281.753ZM480.644 346.885L461.129 380.084L481.239 381.197L481.298 384.61L458.37 383.342L480.62 345.488L480.644 346.885ZM314.635 290.26L300.158 321.719L328.7 293.239L329.117 293.327L297.399 324.976L313.487 290.017L314.635 290.26ZM501.218 409.565L501.025 408.419L543.106 378.331L544.267 378.785L501.218 409.565ZM520.784 369.618L499.726 400.734L499.616 400.077L520.345 369.446L520.784 369.618ZM495.274 393.969L491.741 412.534L488.43 417.424L491.185 415.456L489.188 425.946L499.931 421.54L500.267 423.527L486.428 429.203L488.425 418.713L485.67 420.681L488.981 415.791L494.269 388.012L495.274 393.969ZM339.684 327.921L348.82 332.142L347.854 336.228L334.382 330.004L339.684 327.921ZM402.779 355.52L395.899 378.707L427.066 368.44L429.792 369.89L393.139 381.964L401.23 354.697L402.779 355.52ZM370.737 350.737L372.984 355.565L380.918 351.15L383.803 351.267L370.224 358.822L366.379 350.561L370.737 350.737ZM435.688 382.158L434.814 383.674L439.31 386.263L437.212 389.902L432.054 386.931L435.027 381.777L435.688 382.158ZM476.201 464.938L555.422 452.439L558.017 454.852L475.73 467.834L474.445 466.605L476.201 464.938ZM453.067 405.264L456.24 413.532L453.675 417.295L449.299 405.892L453.067 405.264ZM420.941 400.715L416.314 409.94L426.144 403.814L427.406 404.565L413.554 413.197L420.074 400.199L420.941 400.715ZM474.886 425.608L461.618 448.179L475.261 447.133L475.314 450.174L458.858 451.436L474.861 424.211L474.886 425.608ZM348.664 381.247L362.221 407.062L382.105 390.851L383.019 391.113L359.461 410.32L343.399 379.735L348.664 381.247ZM592.258 480.117L595.059 490.163L611.802 484.161L615.814 484.991L592.299 493.42L588.366 479.312L592.258 480.117ZM552.411 487.793L554.631 495.342L561.015 493.466L561.678 495.717L551.872 498.599L548.989 488.798L552.411 487.793ZM404.544 433.411L387.349 464.019L419.704 447.349L420.983 448.526L384.59 467.276L403.93 432.847L404.544 433.411ZM372.77 432.375L371.434 447.61L368.648 451.161L370.256 432.832L372.77 432.375ZM417.185 501.487L487.524 485.007L489.717 487.104L411.089 505.525L417.185 501.487ZM560.088 521.298L575.748 531.929L574.077 535.925L554.341 522.527L560.088 521.298ZM400.51 483.407L412.618 488.317L413.349 492.99L394.004 485.144L400.51 483.407ZM514.796 537.787L518.835 549.982L514.538 548.598L510.241 535.624L514.796 537.787ZM499.438 547.881L504.122 563.244L521.815 558.979L530.46 585.078L568.493 563.278L570.092 564.037L527.7 588.335L519.055 562.237L501.363 566.501L495.277 546.541L499.438 547.881ZM485.813 563.149C484.996 565.308 485.381 567.834 487.029 569.669C487.749 570.472 488.626 571.049 489.572 571.399C491.334 572.048 493.335 571.902 495.006 570.928C494.655 571.856 494.083 572.715 493.293 573.423C491.467 575.057 488.962 575.448 486.812 574.656C485.866 574.306 484.989 573.729 484.269 572.927C481.913 570.302 482.139 566.267 484.768 563.911C485.096 563.617 485.447 563.363 485.813 563.149V563.149ZM445.968 571.682L462.075 613.892L456.06 607.582L455.77 607.858L438.88 563.599L445.968 571.682ZM471.854 649.631L516.446 662.157L515.163 665.83L467.871 652.545L471.854 649.631ZM547.515 652.596L517.688 710.629L540.838 708.239L540.477 711.249L514.928 713.886L547.846 649.84L547.515 652.596ZM463.618 655.62L442.91 682.314L471.096 679.376L472.001 682.252L440.15 685.571L463.551 655.406L463.618 655.62ZM489.924 687.79C489.29 690.041 490.266 692.51 492.406 693.674C492.63 693.796 492.86 693.9 493.094 693.986C494.409 694.471 495.832 694.382 497.047 693.813C496.945 694.178 496.8 694.537 496.61 694.885C495.375 697.146 492.683 698.11 490.334 697.244C490.101 697.157 489.871 697.053 489.646 696.931C487.158 695.578 486.244 692.462 487.603 689.974C488.146 688.98 488.971 688.237 489.924 687.79V687.79ZM473.359 713.122L488.448 726.517L487.257 731.166L465.301 711.675L473.359 713.122ZM538.677 838.815L519.164 872.015L539.273 873.126L539.332 876.539L516.404 875.272L538.652 837.418L538.677 838.815ZM553.309 885.897L547.221 917.874L557.966 913.468L558.302 915.456L544.461 921.132L552.303 879.942L553.309 885.897Z" fill="#80CFF1"/>
<path fill-rule="evenodd" clip-rule="evenodd" d="M437.359 717.794L429.791 718.761L404.475 707.421L404.225 702.815L437.28 717.623L437.359 717.794Z" fill="#80CFF1"/>
<path fill-rule="evenodd" clip-rule="evenodd" d="M415.137 744.631L415.152 744.637L415.166 744.643L415.181 744.648C418.07 745.715 419.84 748.751 419.227 751.871C418.857 753.743 417.704 755.261 416.175 756.153C416.299 755.825 416.397 755.483 416.467 755.128C417.08 752.009 415.31 748.972 412.421 747.905L412.407 747.901L412.392 747.894L412.377 747.888C412.074 747.78 411.759 747.693 411.434 747.629C409.845 747.317 408.278 747.622 406.981 748.379C408.062 745.512 411.086 743.762 414.194 744.372C414.519 744.436 414.834 744.523 415.137 744.63" fill="#80CFF1"/>
<path fill-rule="evenodd" clip-rule="evenodd" d="M478.011 832.156L474.719 830.611L472.085 806.88L451.413 819.679L449.99 819.012L474.844 803.623L478.011 832.156Z" fill="#80CFF1"/>
<path fill-rule="evenodd" clip-rule="evenodd" d="M171.645 797.175L171.355 793.546L195.039 796.431L191.218 799.559L171.645 797.175Z" fill="#80CFF1"/>
<path fill-rule="evenodd" clip-rule="evenodd" d="M179.635 533.704L173.744 533.891L151.878 512.46L154.242 508.814L179.635 533.704Z" fill="#80CFF1"/>
<path fill-rule="evenodd" clip-rule="evenodd" d="M350.107 997.255L345.513 998.532L337.39 989.767L323.484 1004.65L323.101 1004.76L340.15 986.51L350.107 997.255Z" fill="#80CFF1"/>
<path fill-rule="evenodd" clip-rule="evenodd" d="M165.148 747.156L162.75 747.403L167.432 708.386L170.523 702.374L165.148 747.156Z" fill="#80CFF1"/>
<path fill-rule="evenodd" clip-rule="evenodd" d="M231.349 847.361L228.275 850.288L221.537 843.223L217.212 847.343L216.898 847.014L224.297 839.966L231.349 847.361Z" fill="#80CFF1"/>
<path fill-rule="evenodd" clip-rule="evenodd" d="M388.27 602.115L383.027 599.988L379.45 592.233L378.415 589.989L366.33 593.216L370.077 594.736L379.45 592.233L383.244 591.219L388.27 602.115Z" fill="#80CFF1"/>
<path fill-rule="evenodd" clip-rule="evenodd" d="M150.703 235.841L150.414 232.212L174.097 235.098L170.275 238.226L150.703 235.841Z" fill="#80CFF1"/>
<path fill-rule="evenodd" clip-rule="evenodd" d="M200.881 195.808L196.681 195.942L180.15 160.098L180.284 159.891L187.645 167.106L200.881 195.808Z" fill="#80CFF1"/>
<path fill-rule="evenodd" clip-rule="evenodd" d="M163.632 289.08L159.037 290.358L150.915 281.594L137.008 296.48L136.625 296.586L153.675 278.337L163.632 289.08Z" fill="#80CFF1"/>
<path fill-rule="evenodd" clip-rule="evenodd" d="M288.416 385.608L284.606 386.588L260.831 335.038L263.078 330.667L288.416 385.608Z" fill="#80CFF1"/>
<path fill-rule="evenodd" clip-rule="evenodd" d="M194.302 262.638L191.228 265.566L184.491 258.501L180.166 262.621L179.852 262.292L187.251 255.243L194.302 262.638Z" fill="#80CFF1"/>
<path fill-rule="evenodd" clip-rule="evenodd" d="M229.459 303.605L225.843 303.837L216.326 270.237L162.714 307.887L160.647 308.02L219.085 266.98L229.459 303.605Z" fill="#80CFF1"/>
<path fill-rule="evenodd" clip-rule="evenodd" d="M156.04 465.127L150.167 465.782L135.665 453.662L137.737 449.83L156.04 465.127Z" fill="#80CFF1"/>
<path fill-rule="evenodd" clip-rule="evenodd" d="M162.871 384.165L158.839 381.732L147.991 333.237L108.074 351.097L106.15 349.936L150.751 329.98L162.871 384.165Z" fill="#80CFF1"/>
<path fill-rule="evenodd" clip-rule="evenodd" d="M114.99 419.835L111.472 418.733L109.722 408.663L92.8087 412.883L88.2462 411.453L112.482 405.406L114.99 419.835Z" fill="#80CFF1"/>
<path fill-rule="evenodd" clip-rule="evenodd" d="M155.118 414.313L151.86 414.928L150.465 407.532L143.678 408.811L143.18 406.167L153.225 404.275L155.118 414.313Z" fill="#80CFF1"/>
<path fill-rule="evenodd" clip-rule="evenodd" d="M179.16 390.164L177.299 387.737L237.016 376.994L233.118 380.456L179.16 390.164Z" fill="#80CFF1"/>
<path fill-rule="evenodd" clip-rule="evenodd" d="M324.324 629.287L321.802 627.362L322.865 604.138L308.167 616.955L307.647 616.558L325.624 600.88L324.324 629.287Z" fill="#80CFF1"/>
<path fill-rule="evenodd" clip-rule="evenodd" d="M330.596 542.909L356.46 568.73L350.278 568.57L328.96 547.287L328.714 544.662L330.596 542.909ZM286.736 532.147L286.237 528.704L341.71 531.868L338.256 535.085L286.736 532.147Z" fill="#80CFF1"/>
<path fill-rule="evenodd" clip-rule="evenodd" d="M356.993 644.761L358.814 644.735L353.105 656.223L340.015 694.822L338.88 693.29L350.345 659.48L356.054 647.992L354.233 648.018L358.888 634.288L311.521 656.379L310.436 654.915L361.648 631.031L356.993 644.761Z" fill="#80CFF1"/>
<path fill-rule="evenodd" clip-rule="evenodd" d="M359.931 614.474L357.078 614.557L356.87 607.521L349.505 607.738L349.411 604.564L359.63 604.263L359.931 614.474Z" fill="#80CFF1"/>
<path fill-rule="evenodd" clip-rule="evenodd" d="M299.173 476.668L299.03 476.269L321.703 444.583L289.351 449.219L288.377 446.497L324.462 441.326L299.173 476.668Z" fill="#80CFF1"/>
<path fill-rule="evenodd" clip-rule="evenodd" d="M246.777 411.665L241.471 420.396L240.901 420.05L244.017 414.922L235.851 409.967L238.04 406.363L246.777 411.665Z" fill="#80CFF1"/>
<path fill-rule="evenodd" clip-rule="evenodd" d="M535.981 931.635L536.106 938.848L533.293 939.064L533.054 925.29L533.003 925.17L530.993 920.818L530.993 920.818L533.054 925.29L535.981 931.635Z" fill="#80CFF1"/>
<path fill-rule="evenodd" clip-rule="evenodd" d="M520.24 897.501L514.469 905.967L514.275 905.461L520.022 897.03L519.455 895.801L518.257 893.204L510.092 894.565L511.101 897.194L519.455 895.801L520.07 897.134L520.24 897.501Z" fill="#80CFF1"/>
<path fill-rule="evenodd" clip-rule="evenodd" d="M490.585 858.564L485.099 860.372L460.812 847.451L462.023 843.37L490.585 858.564Z" fill="#80CFF1"/>
<path fill-rule="evenodd" clip-rule="evenodd" d="M488.2 893.237L484.179 895.744L478.975 892.646L480.868 888.873L488.2 893.237Z" fill="#80CFF1"/>
<path fill-rule="evenodd" clip-rule="evenodd" d="M500.977 873.42L498.004 878.575L497.343 878.194L498.218 876.677L493.722 874.089L495.82 870.452L500.977 873.42Z" fill="#80CFF1"/>
<path fill-rule="evenodd" clip-rule="evenodd" d="M391.361 708.987L388.447 708.909L386.944 676.262L389.629 671.38L391.361 708.987Z" fill="#80CFF1"/>
<path fill-rule="evenodd" clip-rule="evenodd" d="M348.507 736.63C349.269 739.087 348.066 741.688 345.791 742.742C346.043 741.836 346.046 740.85 345.747 739.887C345.26 738.314 344.081 737.147 342.645 736.618C341.634 736.245 340.498 736.189 339.388 736.532C339.167 736.6 338.954 736.683 338.75 736.777C339.197 735.164 340.43 733.806 342.148 733.275C343.258 732.931 344.394 732.988 345.405 733.361C346.841 733.89 348.02 735.056 348.507 736.63V736.63Z" fill="#80CFF1"/>
<path fill-rule="evenodd" clip-rule="evenodd" d="M221.603 613.863L217.979 611.237L277.569 605.344L273.322 608.748L221.603 613.863Z" fill="#80CFF1"/>
<path fill-rule="evenodd" clip-rule="evenodd" d="M213.271 490.413L213.188 486.178L282.377 509.972L275.38 511.772L213.271 490.413Z" fill="#80CFF1"/>
<path fill-rule="evenodd" clip-rule="evenodd" d="M419.856 814.361L416.711 816.476L405.03 781.808L406.703 775.329L419.856 814.361Z" fill="#80CFF1"/>
<path fill-rule="evenodd" clip-rule="evenodd" d="M279.463 732.733L277.467 729.603L324.188 728.352L320.056 731.646L279.463 732.733Z" fill="#80CFF1"/>
<path fill-rule="evenodd" clip-rule="evenodd" d="M350.767 844.52L348.413 843.71L356.766 759.973L359.541 756.562L350.767 844.52Z" fill="#80CFF1"/>
<path fill-rule="evenodd" clip-rule="evenodd" d="M170.244 636.524L170.27 636.23L198.929 599.689L173.062 604.397L173.307 601.597L201.689 596.432L170.244 636.524Z" fill="#80CFF1"/>
<path fill-rule="evenodd" clip-rule="evenodd" d="M213.699 680.776L213.725 680.483L232.02 657.159L215.509 660.163L215.755 657.364L234.78 653.902L213.699 680.776Z" fill="#80CFF1"/>
<path fill-rule="evenodd" clip-rule="evenodd" d="M270.796 734.205L267.306 732.789L265.541 721.507L249.833 725.704L246.086 724.184L268.301 718.25L270.796 734.205Z" fill="#80CFF1"/>
<path fill-rule="evenodd" clip-rule="evenodd" d="M280.547 677.412L276.508 679.493L256.621 661.203L258.767 657.382L280.547 677.412Z" fill="#80CFF1"/>
<path fill-rule="evenodd" clip-rule="evenodd" d="M463.115 627.107L454.908 623.419L459.895 618.667L463.115 627.107Z" fill="#A2D9F7" fill-opacity="0.75"/>
<path fill-rule="evenodd" clip-rule="evenodd" d="M391.026 589.139L379.45 592.232L373.216 578.715L393.105 568.47L391.026 589.139Z" fill="#A2D9F7" fill-opacity="0.75"/>
<path fill-rule="evenodd" clip-rule="evenodd" d="M836.985 318.756L577.454 1021.56L533.055 925.29L533.002 925.171L530.622 920.013L520.07 897.134L519.455 895.801L485.701 822.608L487.369 822.806L510.478 757.429L475.17 799.775L463.046 773.491L474.478 742.626L453.084 751.89L429.464 700.676C432.822 699.298 434.652 695.591 433.559 692.061C432.403 688.322 428.433 686.23 424.693 687.386C424.291 687.509 423.918 687.68 423.557 687.867L406.596 651.092L429.681 644.678L419.724 633.933L405.637 649.011L404.298 646.108L439.787 617.521L393.285 622.233L392.9 621.397L417.881 605.582L418.13 608.715L440.146 590.695L423.475 588.664L408.217 560.956L473.361 558.881L460.32 546.097L469.679 548.357L470.63 522.061L485.106 536.576L488.835 516.043L456.887 508.277L465.445 516.859L444.316 530.41L433.697 520.002L417.048 545.693L391.833 522.504L367.373 566.045L351.561 531.761L361.403 513.553L347.021 521.918L338.009 502.377L376.744 514.761L367.328 474.735L345.431 482.403L339.331 440.48L348.159 435.05L341.42 429.736L350.354 422.573L336.918 423.904L336.736 422.638L336.454 423.948L334.344 424.158L323.259 415.416L318.454 425.729L303.349 427.222L300.138 420.261L303.379 415.414L314.604 416.291L314.7 398.479L316.638 395.58L314.714 396.085L314.795 381.372L351.77 371.862L314.915 359.188L314.932 356.037L326.274 350.68L306.799 335.777L295.75 352.597L273.352 344.896L279.04 297.5L260.319 333.924L243.86 298.235L273.393 291.632L240.145 251.853L227.916 263.667L198.122 199.065L219.552 198.382L179.888 159.503L179.881 159.514L133.744 59.4774L836.985 318.756L836.985 318.756ZM353.288 296.674L366.835 290.274L351.554 281.494L348.863 285.591L331.686 308.063L366.12 328.981L353.288 296.674ZM481.298 384.609L480.62 345.487L458.37 383.342L481.298 384.609ZM329.117 293.327L313.487 290.017L297.398 324.976L329.117 293.327ZM500.267 423.528L498.265 411.677L544.268 378.785L520.346 369.446L496.968 403.99L494.269 388.012L488.981 415.791L485.671 420.682L488.425 418.713L486.429 429.202L500.267 423.528ZM350.857 323.531L334.382 330.003L347.855 336.227L350.857 323.531ZM429.792 369.89L401.231 354.697L393.14 381.964L429.792 369.89ZM383.802 351.267L366.379 350.561L370.224 358.822L383.802 351.267ZM440.184 384.747L435.027 381.777L432.054 386.931L437.212 389.902L440.184 384.747ZM558.017 454.852L522.053 421.411L472.636 468.322L558.017 454.852ZM351.66 363.332L348.899 357.609L343.171 360.372L345.934 366.094L351.66 363.332ZM463.006 403.607L449.299 405.892L453.675 417.294L463.006 403.607ZM427.406 404.565L420.074 400.199L413.554 413.197L427.406 404.565ZM475.314 450.174L474.862 424.211L458.858 451.436L475.314 450.174ZM383.019 391.114L343.399 379.736L359.461 410.319L383.019 391.114ZM615.815 484.99L588.366 479.312L592.3 493.42L615.815 484.99ZM561.678 495.716L558.795 485.916L548.989 488.798L551.872 498.599L561.678 495.716ZM420.983 448.526L403.931 432.847L384.589 467.276L420.983 448.526ZM385.151 430.121L370.256 432.832L368.648 451.161L385.151 430.121ZM489.717 487.104L468.916 467.213L411.088 505.526L489.717 487.104ZM582.167 516.573L554.342 522.527L574.078 535.925L582.167 516.573ZM411.395 480.499L394.004 485.145L413.349 492.99L411.395 480.499ZM570.092 564.038L510.242 535.624L516.076 553.239L495.277 546.541L501.363 566.502L519.055 562.237L527.701 588.336L570.092 564.038ZM493.294 573.423C495.921 571.069 496.144 567.033 493.788 564.406C491.435 561.778 487.394 561.56 484.768 563.911C482.139 566.267 481.913 570.303 484.27 572.927C484.99 573.73 485.866 574.307 486.812 574.656C488.962 575.449 491.467 575.057 493.294 573.423V573.423ZM470.712 630.518L466.261 628.519L479.665 610.114L473.371 602.935L477.862 596.25L457.143 584.428L438.88 563.599L459.316 617.149L453.299 610.84L445.901 617.888L449.308 621.463L416.148 665.558L470.712 630.518ZM515.163 665.83L537.621 601.521L467.871 652.545L515.163 665.83ZM540.477 711.249L547.846 649.84L514.929 713.886L540.477 711.249ZM472.001 682.252L463.552 655.406L440.15 685.572L472.001 682.252ZM496.61 694.885C497.966 692.399 497.05 689.284 494.563 687.928C492.075 686.572 488.96 687.49 487.603 689.974C486.245 692.462 487.159 695.578 489.647 696.931C489.872 697.053 490.101 697.157 490.334 697.243C492.683 698.11 495.375 697.147 496.61 694.885ZM491.066 716.301L465.302 711.675L487.257 731.167L491.066 716.301ZM539.333 876.539L538.653 837.418L516.404 875.272L539.333 876.539ZM558.302 915.456L552.304 879.942L544.462 921.132L558.302 915.456Z" fill="#A2D9F7" fill-opacity="0.75"/>
<path fill-rule="evenodd" clip-rule="evenodd" d="M434.835 721.021L402.501 725.153L401.466 706.074L434.835 721.021Z" fill="#A2D9F7" fill-opacity="0.75"/>
<path fill-rule="evenodd" clip-rule="evenodd" d="M412.377 747.889L412.392 747.894L412.407 747.9L412.422 747.905C415.31 748.972 417.08 752.008 416.467 755.127C415.785 758.587 412.427 760.841 408.966 760.159C405.501 759.479 403.249 756.121 403.929 752.661C404.612 749.201 407.972 746.949 411.434 747.629C411.76 747.693 412.074 747.78 412.377 747.889" fill="#A2D9F7" fill-opacity="0.75"/>
<path fill-rule="evenodd" clip-rule="evenodd" d="M475.251 835.413L447.23 822.269L472.085 806.881L475.251 835.413Z" fill="#A2D9F7" fill-opacity="0.75"/>
<path fill-rule="evenodd" clip-rule="evenodd" d="M170.266 817.706L168.595 796.802L192.28 799.689L170.266 817.706Z" fill="#A2D9F7" fill-opacity="0.75"/>
<path fill-rule="evenodd" clip-rule="evenodd" d="M176.876 536.961L134.472 538.313L151.482 512.072L176.876 536.961Z" fill="#A2D9F7" fill-opacity="0.75"/>
<path fill-rule="evenodd" clip-rule="evenodd" d="M347.348 1000.51L320.341 1008.02L337.391 989.767L347.348 1000.51Z" fill="#A2D9F7" fill-opacity="0.75"/>
<path fill-rule="evenodd" clip-rule="evenodd" d="M162.388 750.413L143.758 752.335L167.763 705.631L162.388 750.413Z" fill="#A2D9F7" fill-opacity="0.75"/>
<path fill-rule="evenodd" clip-rule="evenodd" d="M228.589 850.618L221.19 857.666L214.139 850.271L221.538 843.223L228.589 850.618Z" fill="#A2D9F7" fill-opacity="0.75"/>
<path fill-rule="evenodd" clip-rule="evenodd" d="M385.511 605.371L363.57 596.473L379.45 592.232L385.511 605.371Z" fill="#A2D9F7" fill-opacity="0.75"/>
<path fill-rule="evenodd" clip-rule="evenodd" d="M149.323 256.374L147.654 235.469L171.338 238.355L149.323 256.374Z" fill="#A2D9F7" fill-opacity="0.75"/>
<path fill-rule="evenodd" clip-rule="evenodd" d="M198.122 199.065L153.32 200.493L179.88 159.513L198.122 199.065Z" fill="#A2D9F7" fill-opacity="0.75"/>
<path fill-rule="evenodd" clip-rule="evenodd" d="M160.873 292.338L133.866 299.842L150.916 281.594L160.873 292.338Z" fill="#A2D9F7" fill-opacity="0.75"/>
<path fill-rule="evenodd" clip-rule="evenodd" d="M285.657 388.864L266.108 393.891L265.439 359.553L246.121 361.546L260.318 333.924L285.657 388.864Z" fill="#A2D9F7" fill-opacity="0.75"/>
<path fill-rule="evenodd" clip-rule="evenodd" d="M191.543 265.895L184.142 272.943L177.093 265.549L184.492 258.501L191.543 265.895Z" fill="#A2D9F7" fill-opacity="0.75"/>
<path fill-rule="evenodd" clip-rule="evenodd" d="M226.7 306.863L157.888 311.277L216.325 270.238L226.7 306.863Z" fill="#A2D9F7" fill-opacity="0.75"/>
<path fill-rule="evenodd" clip-rule="evenodd" d="M153.28 468.384L125.001 471.539L134.977 453.087L153.28 468.384Z" fill="#A2D9F7" fill-opacity="0.75"/>
<path fill-rule="evenodd" clip-rule="evenodd" d="M160.111 387.422L103.39 353.193L147.992 333.237L160.111 387.422Z" fill="#A2D9F7" fill-opacity="0.75"/>
<path fill-rule="evenodd" clip-rule="evenodd" d="M112.23 423.092L85.4859 414.711L109.722 408.663L112.23 423.092Z" fill="#A2D9F7" fill-opacity="0.75"/>
<path fill-rule="evenodd" clip-rule="evenodd" d="M152.358 417.571L142.313 419.465L140.42 409.425L150.465 407.533L152.358 417.571Z" fill="#A2D9F7" fill-opacity="0.75"/>
<path fill-rule="evenodd" clip-rule="evenodd" d="M193.833 416.151L174.54 390.995L234.256 380.251L193.833 416.151Z" fill="#A2D9F7" fill-opacity="0.75"/>
<path fill-rule="evenodd" clip-rule="evenodd" d="M321.564 632.544L304.887 619.815L322.865 604.137L321.564 632.544Z" fill="#A2D9F7" fill-opacity="0.75"/>
<path fill-rule="evenodd" clip-rule="evenodd" d="M327.481 545.811L353.7 571.988L328.142 571.327L325.896 547.29L290.483 580.291L283.477 531.961L338.95 535.125L327.481 545.811Z" fill="#A2D9F7" fill-opacity="0.75"/>
<path fill-rule="evenodd" clip-rule="evenodd" d="M354.233 648.018L356.054 647.992L350.345 659.48L337.256 698.079L307.676 658.172L358.888 634.288L354.233 648.018Z" fill="#A2D9F7" fill-opacity="0.75"/>
<path fill-rule="evenodd" clip-rule="evenodd" d="M357.171 617.731L346.953 618.03L346.652 607.822L356.87 607.521L357.171 617.731Z" fill="#A2D9F7" fill-opacity="0.75"/>
<path fill-rule="evenodd" clip-rule="evenodd" d="M296.413 479.926L285.617 449.754L321.703 444.583L296.413 479.926Z" fill="#A2D9F7" fill-opacity="0.75"/>
<path fill-rule="evenodd" clip-rule="evenodd" d="M244.017 414.922L238.712 423.653L229.977 418.351L235.28 409.619L244.017 414.922Z" fill="#A2D9F7" fill-opacity="0.75"/>
<path fill-rule="evenodd" clip-rule="evenodd" d="M533.055 925.29L533.347 942.105L516.893 943.367L530.622 920.013L533.055 925.29Z" fill="#A2D9F7" fill-opacity="0.75"/>
<path fill-rule="evenodd" clip-rule="evenodd" d="M520.022 897.029L511.709 909.224L507.333 897.822L519.455 895.801L520.022 897.029Z" fill="#A2D9F7" fill-opacity="0.75"/>
<path fill-rule="evenodd" clip-rule="evenodd" d="M487.825 861.821L451.173 873.893L459.263 846.628L487.825 861.821Z" fill="#A2D9F7" fill-opacity="0.75"/>
<path fill-rule="evenodd" clip-rule="evenodd" d="M485.441 896.495L471.59 905.128L478.108 892.131L485.441 896.495Z" fill="#A2D9F7" fill-opacity="0.75"/>
<path fill-rule="evenodd" clip-rule="evenodd" d="M498.218 876.678L495.245 881.833L490.088 878.862L493.061 873.709L498.218 876.678Z" fill="#A2D9F7" fill-opacity="0.75"/>
<path fill-rule="evenodd" clip-rule="evenodd" d="M388.602 712.244L366.513 711.653L386.87 674.638L388.602 712.244Z" fill="#A2D9F7" fill-opacity="0.75"/>
<path fill-rule="evenodd" clip-rule="evenodd" d="M345.747 739.887C346.578 742.566 345.074 745.413 342.394 746.244C339.709 747.073 336.864 745.568 336.035 742.889C335.205 740.207 336.705 737.362 339.388 736.532C340.499 736.189 341.635 736.245 342.645 736.618C344.08 737.147 345.26 738.313 345.747 739.887V739.887Z" fill="#A2D9F7" fill-opacity="0.75"/>
<path fill-rule="evenodd" clip-rule="evenodd" d="M242.656 634.371L215.219 614.494L274.809 608.602L242.656 634.371Z" fill="#A2D9F7" fill-opacity="0.75"/>
<path fill-rule="evenodd" clip-rule="evenodd" d="M211.233 530.818L210.429 489.436L279.617 513.229L211.233 530.818Z" fill="#A2D9F7" fill-opacity="0.75"/>
<path fill-rule="evenodd" clip-rule="evenodd" d="M417.096 817.619L388.979 836.529L403.945 778.586L417.096 817.619Z" fill="#A2D9F7" fill-opacity="0.75"/>
<path fill-rule="evenodd" clip-rule="evenodd" d="M289.926 756.726L274.708 732.86L321.428 731.61L289.926 756.726Z" fill="#A2D9F7" fill-opacity="0.75"/>
<path fill-rule="evenodd" clip-rule="evenodd" d="M348.008 847.777L298.954 830.898L356.781 759.819L348.008 847.777Z" fill="#A2D9F7" fill-opacity="0.75"/>
<path fill-rule="evenodd" clip-rule="evenodd" d="M167.485 639.781L170.548 604.855L198.93 599.689L167.485 639.781Z" fill="#A2D9F7" fill-opacity="0.75"/>
<path fill-rule="evenodd" clip-rule="evenodd" d="M210.939 684.033L212.995 660.621L232.02 657.159L210.939 684.033Z" fill="#A2D9F7" fill-opacity="0.75"/>
<path fill-rule="evenodd" clip-rule="evenodd" d="M268.036 737.462L243.326 727.442L265.541 721.507L268.036 737.462Z" fill="#A2D9F7" fill-opacity="0.75"/>
<path fill-rule="evenodd" clip-rule="evenodd" d="M277.787 680.669L231.301 704.617L256.007 660.64L277.787 680.669Z" fill="#A2D9F7" fill-opacity="0.75"/>
</g>
<defs>
<clipPath id="clip0">
<rect width="816.354" height="998.631" fill="white" transform="matrix(-0.99657 0.0827499 0.0827499 0.99657 813.554 0)"/>
</clipPath>
</defs>
</svg>
