<svg width="897" height="1063" viewBox="0 0 897 1063" fill="none" xmlns="http://www.w3.org/2000/svg">
<g clip-path="url(#clip0)">
<path fill-rule="evenodd" clip-rule="evenodd" d="M430.315 623.85L435.146 621.679L436.296 618.668L438.076 620.364L438.523 620.162L433.536 615.41L430.315 623.85Z" fill="#80CFF1"/>
<path fill-rule="evenodd" clip-rule="evenodd" d="M502.405 585.882L504.904 586.55L503.086 568.47L519.531 576.941L520.215 575.458L500.326 565.213L502.405 585.882Z" fill="#80CFF1"/>
<path fill-rule="evenodd" clip-rule="evenodd" d="M56.4468 315.499L315.977 1018.3L316.842 1016.42L59.2063 318.756L757.312 61.3702L759.688 56.2199L56.4468 315.499ZM407.657 819.511L407.73 819.352L407.606 819.366L407.657 819.511ZM385.746 757.52L418.261 796.517L418.277 796.483L385.713 757.429L385.746 757.52ZM463.61 698.194L463.967 697.419C463.578 697.259 463.21 697.069 462.864 696.85C463.063 697.323 463.313 697.774 463.61 698.194V698.194ZM478.977 664.873L479.186 664.419L446.883 621.463L450.29 617.888L447.217 614.96L444.124 618.206L477.283 662.3L426.839 629.907L425.479 630.518L478.977 664.873ZM485.817 650.043L486.834 647.835L468.346 642.698L466.51 644.679L485.817 650.043ZM473.292 631.124L473.707 630.676L476.661 633.838L488.786 643.605L489.134 642.851L457.873 617.669L456.405 617.52L473.292 631.124ZM499.337 618.894L500.145 618.976L500.532 618.14L475.55 602.326L475.3 605.458L457.107 590.565L456.045 590.694L478.06 608.715L478.31 605.583L499.337 618.894ZM483.5 560.814L485.215 557.699L425.961 555.811L422.83 558.881L483.5 560.814ZM427.801 548.046L433.112 542.84L426.371 544.468L426.512 548.357L427.801 548.046ZM423.01 524.617L422.8 518.803L410.16 531.479L411.086 536.575L423.01 524.617ZM431.374 510.205L427.986 513.601L431.651 515.951L439.304 508.277L431.374 510.205ZM462.097 520.391L476.382 542.435L476.789 542.061L462.494 520.002L462.097 520.391ZM503.744 523.068L526.058 562.788L526.478 561.879L504.357 522.504L503.744 523.068ZM532.232 510.673L532.027 510.295L532.52 510.581L553.183 503.975L555.422 499.12L520.499 510.285L519.446 514.761L532.232 510.673ZM553.892 438.655L554.1 437.223L549.142 434.174L548.031 435.05L553.892 438.655ZM551.354 426.997L552.011 426.479L547.324 422.722L545.836 422.575L551.354 426.997ZM572.024 416.132L574.977 422.472L576.28 422.601L572.932 415.416L572.024 416.132ZM592.259 415.457L590.052 412.157L581.568 412.82L581.586 416.291L592.259 415.457ZM578.65 380.665L578.636 378.115L548.659 370.405L544.421 371.862L578.65 380.665ZM549.718 365.834L550.515 365.56L553.02 360.372L549.506 358.678L547.498 362.837L545.284 361.77L544.53 363.332L549.718 365.834ZM578.509 354.739L578.499 352.781L571.494 349.472L569.916 350.679L578.509 354.739ZM588.98 336.093L597.681 349.34L598.187 349.166L589.393 335.778L588.98 336.093ZM617.482 300.256L633.113 330.667L633.627 329.554L617.151 297.5L617.482 300.256ZM648.468 297.371L649.572 294.977L624.658 289.408L622.799 291.633L648.468 297.371ZM693.869 198.931L695.31 195.808L679.771 195.313L676.639 198.382L693.869 198.931ZM540.144 293.417L531.222 289.202L529.357 290.274L539.49 295.061L540.144 293.417ZM544.186 281.754L544.568 282.334L561.746 304.807L532.654 322.478L530.071 328.98L542.804 321.246L542.574 320.274L543.685 320.711L564.505 308.064L547.327 285.591L544.637 281.494L544.186 281.754ZM415.547 346.885L435.061 380.085L414.952 381.197L414.893 384.61L437.821 383.342L415.571 345.488L415.547 346.885ZM581.555 290.26L596.033 321.719L567.49 293.239L567.074 293.327L598.792 324.976L582.704 290.017L581.555 290.26ZM394.972 409.565L395.166 408.42L353.085 378.331L351.923 378.785L394.972 409.565ZM375.406 369.618L396.464 400.734L396.575 400.077L375.845 369.446L375.406 369.618ZM400.916 393.969L404.45 412.534L407.761 417.424L405.006 415.456L407.003 425.946L396.26 421.54L395.924 423.527L409.763 429.203L407.766 418.713L410.521 420.681L407.209 415.791L401.922 388.012L400.916 393.969ZM556.507 327.921L547.37 332.142L548.336 336.228L561.809 330.004L556.507 327.921ZM493.412 355.521L500.292 378.707L469.125 368.44L466.399 369.891L503.051 381.964L494.96 354.697L493.412 355.521ZM525.454 350.738L523.207 355.565L515.272 351.15L512.388 351.267L525.967 358.822L529.812 350.561L525.454 350.738ZM460.503 382.158L461.377 383.674L456.881 386.264L458.979 389.902L464.137 386.931L461.164 381.777L460.503 382.158ZM419.99 464.938L340.769 452.439L338.174 454.852L420.461 467.834L421.746 466.605L419.99 464.938ZM443.123 405.264L439.951 413.532L442.516 417.295L446.892 405.892L443.123 405.264ZM475.25 400.715L479.877 409.94L470.047 403.814L468.785 404.565L482.636 413.197L476.117 400.199L475.25 400.715ZM421.305 425.608L434.573 448.179L420.93 447.133L420.877 450.175L437.333 451.436L421.329 424.212L421.305 425.608ZM547.527 381.247L533.97 407.062L514.085 390.851L513.171 391.114L536.73 410.32L552.791 379.736L547.527 381.247ZM303.933 480.117L301.132 490.163L284.388 484.161L280.377 484.991L303.892 493.42L307.825 479.312L303.933 480.117ZM343.78 487.793L341.559 495.342L335.175 493.466L334.513 495.717L344.319 498.6L347.202 488.798L343.78 487.793ZM491.647 433.411L508.841 464.019L476.487 447.349L475.207 448.526L511.601 467.276L492.26 432.847L491.647 433.411ZM523.42 432.375L524.757 447.61L527.542 451.161L525.935 432.833L523.42 432.375ZM479.006 501.487L408.667 485.008L406.474 487.105L485.102 505.526L479.006 501.487ZM336.103 521.298L320.443 531.929L322.113 535.926L341.849 522.527L336.103 521.298ZM495.68 483.407L483.573 488.317L482.841 492.99L502.186 485.144L495.68 483.407ZM381.395 537.787L377.356 549.982L381.652 548.598L385.95 535.625L381.395 537.787ZM396.752 547.881L392.069 563.244L374.376 558.979L365.731 585.078L327.698 563.278L326.099 564.037L368.49 588.335L377.136 562.237L394.828 566.501L400.914 546.541L396.752 547.881ZM410.377 563.149C411.195 565.308 410.81 567.834 409.162 569.67C408.442 570.472 407.565 571.049 406.619 571.399C404.856 572.048 402.856 571.902 401.185 570.928C401.536 571.856 402.107 572.715 402.897 573.423C404.724 575.057 407.229 575.448 409.378 574.656C410.325 574.306 411.201 573.729 411.921 572.927C414.278 570.302 414.052 566.267 411.423 563.911C411.094 563.617 410.744 563.363 410.377 563.149V563.149ZM450.223 571.682L434.116 613.892L440.131 607.583L440.421 607.858L457.31 563.599L450.223 571.682ZM424.337 649.632L379.745 662.157L381.027 665.83L428.32 652.545L424.337 649.632ZM348.675 652.596L378.503 710.629L355.353 708.239L355.714 711.249L381.262 713.886L348.345 649.84L348.675 652.596ZM432.573 655.62L453.281 682.314L425.094 679.376L424.189 682.252L456.04 685.571L432.64 655.406L432.573 655.62ZM406.266 687.79C406.901 690.041 405.925 692.51 403.785 693.674C403.56 693.796 403.33 693.9 403.097 693.986C401.781 694.472 400.358 694.383 399.144 693.813C399.246 694.178 399.391 694.538 399.581 694.885C400.816 697.147 403.508 698.11 405.857 697.244C406.09 697.157 406.32 697.053 406.544 696.931C409.032 695.578 409.947 692.462 408.588 689.974C408.045 688.98 407.22 688.237 406.266 687.79V687.79ZM422.832 713.122L407.743 726.517L408.934 731.166L430.89 711.675L422.832 713.122ZM357.514 838.815L377.027 872.015L356.918 873.127L356.858 876.54L379.787 875.272L357.538 837.419L357.514 838.815ZM342.882 885.897L348.97 917.875L338.225 913.468L337.889 915.456L351.73 921.132L343.888 879.942L342.882 885.897Z" fill="#80CFF1"/>
<path fill-rule="evenodd" clip-rule="evenodd" d="M458.832 717.794L466.4 718.762L491.715 707.421L491.966 702.816L458.911 717.623L458.832 717.794Z" fill="#80CFF1"/>
<path fill-rule="evenodd" clip-rule="evenodd" d="M481.054 744.631L481.039 744.637L481.024 744.644L481.01 744.648C478.121 745.715 476.351 748.751 476.964 751.871C477.333 753.743 478.487 755.261 480.016 756.153C479.892 755.826 479.793 755.483 479.723 755.128C479.111 752.009 480.881 748.972 483.77 747.906L483.784 747.901L483.799 747.894L483.814 747.888C484.117 747.78 484.432 747.693 484.757 747.629C486.346 747.317 487.913 747.623 489.21 748.379C488.129 745.512 485.104 743.762 481.997 744.372C481.672 744.436 481.357 744.523 481.054 744.631" fill="#80CFF1"/>
<path fill-rule="evenodd" clip-rule="evenodd" d="M418.179 832.156L421.472 830.611L424.106 806.88L444.778 819.679L446.201 819.012L421.346 803.623L418.179 832.156Z" fill="#80CFF1"/>
<path fill-rule="evenodd" clip-rule="evenodd" d="M724.546 797.175L724.836 793.546L701.151 796.431L704.973 799.559L724.546 797.175Z" fill="#80CFF1"/>
<path fill-rule="evenodd" clip-rule="evenodd" d="M716.556 533.704L722.447 533.892L744.312 512.46L741.949 508.814L716.556 533.704Z" fill="#80CFF1"/>
<path fill-rule="evenodd" clip-rule="evenodd" d="M546.083 997.256L550.678 998.532L558.8 989.767L572.707 1004.65L573.09 1004.76L556.041 986.51L546.083 997.256Z" fill="#80CFF1"/>
<path fill-rule="evenodd" clip-rule="evenodd" d="M731.043 747.156L733.441 747.403L728.759 708.387L725.668 702.374L731.043 747.156Z" fill="#80CFF1"/>
<path fill-rule="evenodd" clip-rule="evenodd" d="M664.841 847.361L667.915 850.289L674.653 843.223L678.979 847.344L679.293 847.015L671.893 839.966L664.841 847.361Z" fill="#80CFF1"/>
<path fill-rule="evenodd" clip-rule="evenodd" d="M507.921 602.115L513.164 599.988L516.741 592.233L517.776 589.989L529.86 593.216L526.114 594.736L516.741 592.233L512.947 591.219L507.921 602.115Z" fill="#80CFF1"/>
<path fill-rule="evenodd" clip-rule="evenodd" d="M745.487 235.841L745.777 232.213L722.094 235.098L725.916 238.226L745.487 235.841Z" fill="#80CFF1"/>
<path fill-rule="evenodd" clip-rule="evenodd" d="M695.31 195.808L699.51 195.942L716.04 160.098L715.907 159.891L708.546 167.106L695.31 195.808Z" fill="#80CFF1"/>
<path fill-rule="evenodd" clip-rule="evenodd" d="M732.558 289.08L737.153 290.358L745.276 281.594L759.183 296.48L759.566 296.586L742.516 278.337L732.558 289.08Z" fill="#80CFF1"/>
<path fill-rule="evenodd" clip-rule="evenodd" d="M607.774 385.608L611.585 386.588L635.359 335.038L633.113 330.668L607.774 385.608Z" fill="#80CFF1"/>
<path fill-rule="evenodd" clip-rule="evenodd" d="M701.888 262.638L704.963 265.566L711.699 258.501L716.025 262.621L716.339 262.292L708.94 255.244L701.888 262.638Z" fill="#80CFF1"/>
<path fill-rule="evenodd" clip-rule="evenodd" d="M666.731 303.605L670.348 303.838L679.865 270.238L733.476 307.888L735.544 308.02L677.105 266.98L666.731 303.605Z" fill="#80CFF1"/>
<path fill-rule="evenodd" clip-rule="evenodd" d="M740.151 465.127L746.024 465.782L760.526 453.662L758.454 449.831L740.151 465.127Z" fill="#80CFF1"/>
<path fill-rule="evenodd" clip-rule="evenodd" d="M733.32 384.166L737.352 381.732L748.2 333.237L788.116 351.097L790.041 349.936L745.44 329.98L733.32 384.166Z" fill="#80CFF1"/>
<path fill-rule="evenodd" clip-rule="evenodd" d="M781.201 419.835L784.718 418.733L786.468 408.663L803.382 412.883L807.944 411.453L783.709 405.406L781.201 419.835Z" fill="#80CFF1"/>
<path fill-rule="evenodd" clip-rule="evenodd" d="M741.073 414.313L744.331 414.928L745.726 407.532L752.513 408.811L753.011 406.167L742.966 404.275L741.073 414.313Z" fill="#80CFF1"/>
<path fill-rule="evenodd" clip-rule="evenodd" d="M717.031 390.164L718.891 387.738L659.175 376.994L663.073 380.456L717.031 390.164Z" fill="#80CFF1"/>
<path fill-rule="evenodd" clip-rule="evenodd" d="M571.867 629.287L574.389 627.362L573.326 604.138L588.024 616.955L588.544 616.558L570.566 600.881L571.867 629.287Z" fill="#80CFF1"/>
<path fill-rule="evenodd" clip-rule="evenodd" d="M565.594 542.909L539.731 568.73L545.913 568.57L567.231 547.287L567.476 544.662L565.594 542.909ZM609.455 532.147L609.954 528.704L554.481 531.868L557.934 535.085L609.455 532.147Z" fill="#80CFF1"/>
<path fill-rule="evenodd" clip-rule="evenodd" d="M539.198 644.761L537.377 644.735L543.086 656.223L556.176 694.822L557.311 693.29L545.845 659.48L540.137 647.992L541.957 648.018L537.303 634.288L584.669 656.379L585.754 654.915L534.543 631.031L539.198 644.761Z" fill="#80CFF1"/>
<path fill-rule="evenodd" clip-rule="evenodd" d="M536.26 614.474L539.113 614.558L539.32 607.521L546.686 607.738L546.78 604.565L536.561 604.263L536.26 614.474Z" fill="#80CFF1"/>
<path fill-rule="evenodd" clip-rule="evenodd" d="M597.018 476.668L597.161 476.269L574.488 444.583L606.84 449.219L607.814 446.497L571.728 441.326L597.018 476.668Z" fill="#80CFF1"/>
<path fill-rule="evenodd" clip-rule="evenodd" d="M649.414 411.665L654.72 420.396L655.29 420.05L652.174 414.922L660.34 409.967L658.151 406.363L649.414 411.665Z" fill="#80CFF1"/>
<path fill-rule="evenodd" clip-rule="evenodd" d="M360.21 931.635L360.085 938.848L362.897 939.064L363.136 925.29L363.188 925.171L365.197 920.818L365.197 920.819L363.136 925.29L360.21 931.635Z" fill="#80CFF1"/>
<path fill-rule="evenodd" clip-rule="evenodd" d="M375.951 897.501L381.722 905.967L381.916 905.461L376.169 897.03L376.736 895.801L377.934 893.204L386.099 894.565L385.09 897.194L376.736 895.801L376.12 897.134L375.951 897.501Z" fill="#80CFF1"/>
<path fill-rule="evenodd" clip-rule="evenodd" d="M405.606 858.564L411.092 860.372L435.379 847.451L434.168 843.37L405.606 858.564Z" fill="#80CFF1"/>
<path fill-rule="evenodd" clip-rule="evenodd" d="M407.991 893.237L412.012 895.744L417.215 892.646L415.323 888.873L407.991 893.237Z" fill="#80CFF1"/>
<path fill-rule="evenodd" clip-rule="evenodd" d="M395.213 873.42L398.187 878.575L398.848 878.194L397.973 876.678L402.469 874.089L400.37 870.452L395.213 873.42Z" fill="#80CFF1"/>
<path fill-rule="evenodd" clip-rule="evenodd" d="M504.83 708.987L507.743 708.909L509.247 676.262L506.562 671.38L504.83 708.987Z" fill="#80CFF1"/>
<path fill-rule="evenodd" clip-rule="evenodd" d="M547.684 736.63C546.922 739.087 548.125 741.688 550.399 742.742C550.148 741.836 550.145 740.85 550.443 739.887C550.931 738.314 552.11 737.147 553.545 736.618C554.557 736.245 555.692 736.189 556.803 736.532C557.024 736.6 557.236 736.683 557.441 736.777C556.994 735.164 555.761 733.806 554.043 733.275C552.932 732.931 551.797 732.988 550.786 733.361C549.35 733.89 548.171 735.056 547.684 736.63V736.63Z" fill="#80CFF1"/>
<path fill-rule="evenodd" clip-rule="evenodd" d="M674.588 613.863L678.212 611.237L618.621 605.344L622.869 608.748L674.588 613.863Z" fill="#80CFF1"/>
<path fill-rule="evenodd" clip-rule="evenodd" d="M682.92 490.413L683.002 486.179L613.813 509.972L620.811 511.772L682.92 490.413Z" fill="#80CFF1"/>
<path fill-rule="evenodd" clip-rule="evenodd" d="M476.335 814.362L479.479 816.476L491.161 781.809L489.487 775.329L476.335 814.362Z" fill="#80CFF1"/>
<path fill-rule="evenodd" clip-rule="evenodd" d="M616.728 732.733L618.724 729.603L572.003 728.352L576.134 731.646L616.728 732.733Z" fill="#80CFF1"/>
<path fill-rule="evenodd" clip-rule="evenodd" d="M545.424 844.52L547.778 843.71L539.424 759.973L536.649 756.562L545.424 844.52Z" fill="#80CFF1"/>
<path fill-rule="evenodd" clip-rule="evenodd" d="M725.947 636.524L725.921 636.23L697.261 599.689L723.129 604.397L722.883 601.598L694.502 596.432L725.947 636.524Z" fill="#80CFF1"/>
<path fill-rule="evenodd" clip-rule="evenodd" d="M682.492 680.776L682.466 680.483L664.171 657.159L680.682 660.163L680.436 657.364L661.411 653.902L682.492 680.776Z" fill="#80CFF1"/>
<path fill-rule="evenodd" clip-rule="evenodd" d="M625.394 734.205L628.885 732.789L630.65 721.507L646.358 725.704L650.104 724.184L627.89 718.25L625.394 734.205Z" fill="#80CFF1"/>
<path fill-rule="evenodd" clip-rule="evenodd" d="M615.644 677.413L619.683 679.493L639.57 661.204L637.423 657.383L615.644 677.413Z" fill="#80CFF1"/>
<path fill-rule="evenodd" clip-rule="evenodd" d="M433.075 627.107L441.283 623.419L436.295 618.667L433.075 627.107Z" fill="#A2D9F7" fill-opacity="0.75"/>
<path fill-rule="evenodd" clip-rule="evenodd" d="M505.165 589.139L516.741 592.232L522.975 578.715L503.086 568.47L505.165 589.139Z" fill="#A2D9F7" fill-opacity="0.75"/>
<path fill-rule="evenodd" clip-rule="evenodd" d="M59.2061 318.756L318.737 1021.56L363.136 925.29L363.189 925.171L365.569 920.013L376.12 897.134L376.736 895.801L410.49 822.608L408.822 822.806L385.713 757.429L421.021 799.775L433.145 773.491L421.712 742.626L443.106 751.89L466.726 700.676C463.369 699.298 461.539 695.591 462.632 692.061C463.788 688.322 467.758 686.23 471.498 687.386C471.899 687.509 472.273 687.68 472.634 687.867L489.594 651.092L466.51 644.678L476.467 633.933L490.554 649.011L491.893 646.108L456.404 617.521L502.906 622.233L503.291 621.397L478.31 605.582L478.06 608.715L456.045 590.695L472.716 588.664L487.974 560.956L422.83 558.881L435.871 546.097L426.511 548.357L425.56 522.061L411.085 536.576L407.355 516.043L439.304 508.277L430.746 516.859L451.875 530.41L462.494 520.002L479.142 545.693L504.358 522.504L528.818 566.045L544.63 531.761L534.787 513.553L549.17 521.918L558.182 502.377L519.447 514.761L528.863 474.735L550.76 482.403L556.86 440.48L548.031 435.05L554.771 429.736L545.837 422.573L559.272 423.904L559.455 422.638L559.737 423.948L561.847 424.158L572.932 415.416L577.737 425.729L592.842 427.222L596.053 420.261L592.812 415.414L581.586 416.291L581.491 398.479L579.553 395.58L581.477 396.085L581.396 381.372L544.421 371.862L581.276 359.188L581.258 356.037L569.916 350.68L589.392 335.777L600.441 352.597L622.839 344.896L617.151 297.5L635.872 333.924L652.331 298.235L622.798 291.632L656.046 251.853L668.275 263.667L698.069 199.065L676.639 198.382L716.303 159.503L716.31 159.514L762.447 59.4774L59.2057 318.756L59.2061 318.756ZM542.903 296.674L529.356 290.274L544.637 281.494L547.328 285.591L564.505 308.063L530.071 328.981L542.903 296.674ZM414.892 384.609L415.571 345.487L437.821 383.342L414.892 384.609ZM567.074 293.327L582.704 290.017L598.793 324.976L567.074 293.327ZM395.924 423.528L397.925 411.677L351.923 378.785L375.845 369.446L399.223 403.99L401.922 388.012L407.209 415.791L410.52 420.682L407.765 418.713L409.762 429.202L395.924 423.528ZM545.334 323.531L561.809 330.003L548.336 336.227L545.334 323.531ZM466.399 369.89L494.96 354.697L503.051 381.964L466.399 369.89ZM512.389 351.267L529.811 350.561L525.967 358.822L512.389 351.267ZM456.007 384.747L461.164 381.777L464.137 386.931L458.979 389.902L456.007 384.747ZM338.174 454.852L374.137 421.411L423.555 468.322L338.174 454.852ZM544.53 363.332L547.292 357.609L553.02 360.372L550.257 366.094L544.53 363.332ZM433.185 403.607L446.892 405.892L442.516 417.294L433.185 403.607ZM468.785 404.565L476.117 400.199L482.637 413.197L468.785 404.565ZM420.877 450.174L421.329 424.211L437.332 451.436L420.877 450.174ZM513.172 391.114L552.792 379.736L536.729 410.319L513.172 391.114ZM280.376 484.99L307.825 479.312L303.891 493.42L280.376 484.99ZM334.513 495.716L337.396 485.916L347.201 488.798L344.319 498.599L334.513 495.716ZM475.207 448.526L492.26 432.847L511.601 467.276L475.207 448.526ZM511.04 430.121L525.935 432.832L527.542 451.161L511.04 430.121ZM406.473 487.104L427.275 467.213L485.103 505.526L406.473 487.104ZM314.024 516.573L341.849 522.527L322.113 535.925L314.024 516.573ZM484.796 480.499L502.186 485.145L482.842 492.99L484.796 480.499ZM326.099 564.038L385.949 535.624L380.115 553.239L400.914 546.541L394.828 566.502L377.135 562.237L368.49 588.336L326.099 564.038ZM402.897 573.423C400.27 571.069 400.047 567.033 402.403 564.406C404.755 561.778 408.797 561.56 411.423 563.911C414.052 566.267 414.278 570.303 411.921 572.927C411.201 573.73 410.325 574.307 409.378 574.656C407.229 575.449 404.724 575.057 402.897 573.423V573.423ZM425.479 630.518L429.929 628.519L416.526 610.114L422.82 602.935L418.328 596.25L439.048 584.428L457.311 563.599L436.875 617.149L442.891 610.84L450.29 617.888L446.883 621.463L480.042 665.558L425.479 630.518ZM381.028 665.83L358.57 601.521L428.32 652.545L381.028 665.83ZM355.714 711.249L348.345 649.84L381.262 713.886L355.714 711.249ZM424.189 682.252L432.639 655.406L456.041 685.572L424.189 682.252ZM399.581 694.885C398.224 692.399 399.141 689.284 401.628 687.928C404.115 686.572 407.231 687.49 408.588 689.974C409.946 692.462 409.032 695.578 406.544 696.931C406.319 697.053 406.09 697.157 405.857 697.243C403.508 698.11 400.816 697.147 399.581 694.885ZM405.125 716.301L430.889 711.675L408.934 731.167L405.125 716.301ZM356.858 876.539L357.538 837.418L379.786 875.272L356.858 876.539ZM337.889 915.456L343.887 879.942L351.729 921.132L337.889 915.456Z" fill="#A2D9F7" fill-opacity="0.75"/>
<path fill-rule="evenodd" clip-rule="evenodd" d="M461.355 721.021L493.689 725.153L494.725 706.074L461.355 721.021Z" fill="#A2D9F7" fill-opacity="0.75"/>
<path fill-rule="evenodd" clip-rule="evenodd" d="M483.813 747.889L483.799 747.894L483.784 747.9L483.769 747.905C480.881 748.972 479.11 752.008 479.723 755.127C480.406 758.587 483.764 760.841 487.225 760.159C490.689 759.479 492.942 756.121 492.262 752.661C491.578 749.201 488.218 746.949 484.757 747.629C484.431 747.693 484.116 747.78 483.813 747.889" fill="#A2D9F7" fill-opacity="0.75"/>
<path fill-rule="evenodd" clip-rule="evenodd" d="M420.939 835.413L448.96 822.269L424.106 806.881L420.939 835.413Z" fill="#A2D9F7" fill-opacity="0.75"/>
<path fill-rule="evenodd" clip-rule="evenodd" d="M725.925 817.706L727.596 796.802L703.91 799.689L725.925 817.706Z" fill="#A2D9F7" fill-opacity="0.75"/>
<path fill-rule="evenodd" clip-rule="evenodd" d="M719.315 536.961L761.719 538.313L744.708 512.072L719.315 536.961Z" fill="#A2D9F7" fill-opacity="0.75"/>
<path fill-rule="evenodd" clip-rule="evenodd" d="M548.843 1000.51L575.85 1008.02L558.8 989.767L548.843 1000.51Z" fill="#A2D9F7" fill-opacity="0.75"/>
<path fill-rule="evenodd" clip-rule="evenodd" d="M733.802 750.413L752.433 752.335L728.428 705.631L733.802 750.413Z" fill="#A2D9F7" fill-opacity="0.75"/>
<path fill-rule="evenodd" clip-rule="evenodd" d="M667.602 850.618L675.001 857.666L682.052 850.271L674.653 843.223L667.602 850.618Z" fill="#A2D9F7" fill-opacity="0.75"/>
<path fill-rule="evenodd" clip-rule="evenodd" d="M510.68 605.371L532.62 596.473L516.741 592.232L510.68 605.371Z" fill="#A2D9F7" fill-opacity="0.75"/>
<path fill-rule="evenodd" clip-rule="evenodd" d="M746.868 256.374L748.536 235.469L724.853 238.355L746.868 256.374Z" fill="#A2D9F7" fill-opacity="0.75"/>
<path fill-rule="evenodd" clip-rule="evenodd" d="M698.069 199.065L742.87 200.493L716.31 159.513L698.069 199.065Z" fill="#A2D9F7" fill-opacity="0.75"/>
<path fill-rule="evenodd" clip-rule="evenodd" d="M735.318 292.338L762.325 299.842L745.275 281.594L735.318 292.338Z" fill="#A2D9F7" fill-opacity="0.75"/>
<path fill-rule="evenodd" clip-rule="evenodd" d="M610.534 388.864L630.082 393.891L630.752 359.553L650.069 361.546L635.872 333.924L610.534 388.864Z" fill="#A2D9F7" fill-opacity="0.75"/>
<path fill-rule="evenodd" clip-rule="evenodd" d="M704.648 265.895L712.048 272.943L719.098 265.549L711.699 258.501L704.648 265.895Z" fill="#A2D9F7" fill-opacity="0.75"/>
<path fill-rule="evenodd" clip-rule="evenodd" d="M669.491 306.863L738.303 311.277L679.865 270.238L669.491 306.863Z" fill="#A2D9F7" fill-opacity="0.75"/>
<path fill-rule="evenodd" clip-rule="evenodd" d="M742.91 468.384L771.19 471.539L761.214 453.087L742.91 468.384Z" fill="#A2D9F7" fill-opacity="0.75"/>
<path fill-rule="evenodd" clip-rule="evenodd" d="M736.079 387.422L792.8 353.193L748.199 333.237L736.079 387.422Z" fill="#A2D9F7" fill-opacity="0.75"/>
<path fill-rule="evenodd" clip-rule="evenodd" d="M783.961 423.092L810.705 414.711L786.468 408.663L783.961 423.092Z" fill="#A2D9F7" fill-opacity="0.75"/>
<path fill-rule="evenodd" clip-rule="evenodd" d="M743.833 417.571L753.878 419.465L755.77 409.425L745.726 407.533L743.833 417.571Z" fill="#A2D9F7" fill-opacity="0.75"/>
<path fill-rule="evenodd" clip-rule="evenodd" d="M702.358 416.151L721.651 390.995L661.935 380.251L702.358 416.151Z" fill="#A2D9F7" fill-opacity="0.75"/>
<path fill-rule="evenodd" clip-rule="evenodd" d="M574.627 632.544L591.303 619.815L573.326 604.137L574.627 632.544Z" fill="#A2D9F7" fill-opacity="0.75"/>
<path fill-rule="evenodd" clip-rule="evenodd" d="M568.709 545.811L542.491 571.988L568.049 571.327L570.295 547.29L605.707 580.291L612.714 531.961L557.24 535.125L568.709 545.811Z" fill="#A2D9F7" fill-opacity="0.75"/>
<path fill-rule="evenodd" clip-rule="evenodd" d="M541.958 648.018L540.137 647.992L545.846 659.48L558.935 698.079L588.515 658.172L537.303 634.288L541.958 648.018Z" fill="#A2D9F7" fill-opacity="0.75"/>
<path fill-rule="evenodd" clip-rule="evenodd" d="M539.02 617.731L549.238 618.03L549.539 607.822L539.321 607.521L539.02 617.731Z" fill="#A2D9F7" fill-opacity="0.75"/>
<path fill-rule="evenodd" clip-rule="evenodd" d="M599.778 479.926L610.574 449.754L574.488 444.583L599.778 479.926Z" fill="#A2D9F7" fill-opacity="0.75"/>
<path fill-rule="evenodd" clip-rule="evenodd" d="M652.174 414.922L657.479 423.653L666.214 418.351L660.91 409.619L652.174 414.922Z" fill="#A2D9F7" fill-opacity="0.75"/>
<path fill-rule="evenodd" clip-rule="evenodd" d="M363.136 925.29L362.844 942.105L379.298 943.367L365.569 920.013L363.136 925.29Z" fill="#A2D9F7" fill-opacity="0.75"/>
<path fill-rule="evenodd" clip-rule="evenodd" d="M376.169 897.029L384.481 909.224L388.858 897.822L376.736 895.801L376.169 897.029Z" fill="#A2D9F7" fill-opacity="0.75"/>
<path fill-rule="evenodd" clip-rule="evenodd" d="M408.365 861.821L445.018 873.893L436.928 846.628L408.365 861.821Z" fill="#A2D9F7" fill-opacity="0.75"/>
<path fill-rule="evenodd" clip-rule="evenodd" d="M410.75 896.495L424.601 905.128L418.083 892.131L410.75 896.495Z" fill="#A2D9F7" fill-opacity="0.75"/>
<path fill-rule="evenodd" clip-rule="evenodd" d="M397.973 876.678L400.946 881.833L406.103 878.862L403.13 873.709L397.973 876.678Z" fill="#A2D9F7" fill-opacity="0.75"/>
<path fill-rule="evenodd" clip-rule="evenodd" d="M507.589 712.244L529.678 711.653L509.321 674.638L507.589 712.244Z" fill="#A2D9F7" fill-opacity="0.75"/>
<path fill-rule="evenodd" clip-rule="evenodd" d="M550.443 739.887C549.613 742.566 551.117 745.413 553.797 746.244C556.482 747.073 559.327 745.568 560.156 742.889C560.986 740.207 559.486 737.362 556.802 736.532C555.692 736.189 554.556 736.245 553.545 736.618C552.111 737.147 550.931 738.313 550.443 739.887V739.887Z" fill="#A2D9F7" fill-opacity="0.75"/>
<path fill-rule="evenodd" clip-rule="evenodd" d="M653.535 634.371L680.972 614.494L621.382 608.602L653.535 634.371Z" fill="#A2D9F7" fill-opacity="0.75"/>
<path fill-rule="evenodd" clip-rule="evenodd" d="M684.958 530.818L685.762 489.436L616.574 513.229L684.958 530.818Z" fill="#A2D9F7" fill-opacity="0.75"/>
<path fill-rule="evenodd" clip-rule="evenodd" d="M479.095 817.619L507.212 836.529L492.246 778.586L479.095 817.619Z" fill="#A2D9F7" fill-opacity="0.75"/>
<path fill-rule="evenodd" clip-rule="evenodd" d="M606.265 756.726L621.483 732.86L574.763 731.61L606.265 756.726Z" fill="#A2D9F7" fill-opacity="0.75"/>
<path fill-rule="evenodd" clip-rule="evenodd" d="M548.182 847.777L597.237 830.898L539.409 759.819L548.182 847.777Z" fill="#A2D9F7" fill-opacity="0.75"/>
<path fill-rule="evenodd" clip-rule="evenodd" d="M728.706 639.781L725.643 604.855L697.261 599.689L728.706 639.781Z" fill="#A2D9F7" fill-opacity="0.75"/>
<path fill-rule="evenodd" clip-rule="evenodd" d="M685.251 684.033L683.196 660.621L664.171 657.159L685.251 684.033Z" fill="#A2D9F7" fill-opacity="0.75"/>
<path fill-rule="evenodd" clip-rule="evenodd" d="M628.155 737.462L652.865 727.442L630.65 721.507L628.155 737.462Z" fill="#A2D9F7" fill-opacity="0.75"/>
<path fill-rule="evenodd" clip-rule="evenodd" d="M618.404 680.669L664.89 704.617L640.183 660.64L618.404 680.669Z" fill="#A2D9F7" fill-opacity="0.75"/>
</g>
<defs>
<clipPath id="clip0">
<rect width="816.354" height="998.631" fill="white" transform="translate(82.6367) rotate(4.74665)"/>
</clipPath>
</defs>
</svg>
