<svg width="396" height="71" viewBox="0 0 396 71" fill="none" xmlns="http://www.w3.org/2000/svg">
<path d="M64.5439 47.2372H69.6733L78.0406 24.171H60.6665L59.7005 26.7742C54.2312 41.4382 52.5926 42.9207 49.2227 42.4925L47.5007 47.2372C47.9201 47.3032 48.8409 47.3363 49.4696 47.3363C55.3271 47.3363 58.7534 42.69 62.8652 31.7829L63.8756 29.1139H71.1229L64.5439 47.2372ZM73.9757 47.2372H91.9788L93.7063 42.4593H80.8327L82.4998 37.8462H94.2479L95.9475 33.2329H84.1999L85.7448 28.9494H98.3204L100.048 24.171H82.3426L73.9757 47.2372ZM91.9614 51.0928H96.7599L98.1675 47.2372H113.027L111.619 51.0928H116.418L119.553 42.4593H116.872L123.512 24.171H106.633L105.64 26.9391C102.346 36.1327 99.1396 40.6469 97.6113 42.4593H95.0966L91.9614 51.0928ZM109.969 28.9494H116.654L111.743 42.4593H103.039C105.052 40.1198 107.276 35.7373 109.456 30.2343L109.969 28.9494ZM122.648 37.4176C121.67 43.2503 125.072 47.6331 131.493 47.6331C139.137 47.6331 146.198 42.0312 147.552 33.9581C148.557 27.9607 145.254 23.7756 138.768 23.7756C129.733 23.7756 123.631 31.5524 122.648 37.4176ZM128.048 36.9896C128.81 32.4422 132.876 28.7185 137.377 28.7185C141.05 28.7185 142.66 31.3548 142.141 34.452C141.401 38.8677 137.418 42.69 132.884 42.69C129.508 42.69 127.463 40.4827 128.048 36.9896ZM145.988 47.2372H156.082C162.039 47.2372 166.965 45.2937 167.959 39.3618C168.351 37.0222 167.645 35.7046 166.537 35.0123C168.473 34.1224 170.37 32.2774 170.774 29.8719C171.403 26.1155 169.81 24.171 164.714 24.171H154.355L145.988 47.2372ZM159.255 37.7804C161.407 37.7804 162.835 38.1427 162.586 39.6255C162.255 41.6026 160.556 42.4593 157.28 42.4593H152.845L154.556 37.7804H159.255ZM162.457 28.9494C164.839 28.9494 165.501 29.5419 165.307 30.696C165.042 32.2774 163.636 33.1668 161.352 33.1668H156.223L157.757 28.9494H162.457ZM165.48 47.2372H171.172L174.604 42.9537H184.135L184.476 47.2372H189.606L187.813 24.171H184.007L165.48 47.2372ZM183.338 31.9146L183.833 38.6371H177.975L183.338 31.9146ZM205.391 47.2372H210.521L218.888 24.171H208.563C202.507 24.171 197.321 27.0712 196.387 32.6396C195.88 35.6714 197.126 37.5167 199.359 38.6045L189.473 47.2372H195.662L204.384 39.6255H208.157L205.391 47.2372ZM204.821 34.8475C202.703 34.8475 201.506 33.8919 201.821 32.0137C202.186 29.8389 204.221 28.9494 207.166 28.9494H212.031L209.884 34.8475H204.821ZM224.096 47.2372H229.788L233.22 42.9537H242.75L243.092 47.2372H248.221L246.428 24.171H242.623L224.096 47.2372ZM241.953 31.9146L242.448 38.6371H236.59L241.953 31.9146ZM255.369 47.2372L258.008 39.9882H262.476C268.929 39.9882 274.505 37.1216 275.511 31.1242C276.14 27.3674 274.79 24.171 268.204 24.171H258.607L250.24 47.2372H255.369ZM266.609 28.9494C269.422 28.9494 270.371 30.0034 270.122 31.4864C269.752 33.6944 267.876 35.2102 264.136 35.2102H259.735L262.009 28.9494H266.609ZM272.644 47.2372H290.647L292.375 42.4593H279.501L281.168 37.8462H292.916L294.616 33.2329H282.868L284.414 28.9494H296.989L298.717 24.171H281.011L272.644 47.2372ZM309.544 47.2372H314.674L323.041 24.171H317.911L314.638 33.2329H304.346L307.619 24.171H302.489L294.122 47.2372H299.252L302.585 38.011H312.877L309.544 47.2372ZM316.692 47.2372H322.384L325.816 42.9537H335.347L335.688 47.2372H340.818L339.025 24.171H335.219L316.692 47.2372ZM334.55 31.9146L335.045 38.6371H329.187L334.55 31.9146Z" fill="#0082C8"/>
<path fill-rule="evenodd" clip-rule="evenodd" d="M396.091 5.65198H21.0913V0.956324H396.091V5.65198Z" fill="#0082C8"/>
<path fill-rule="evenodd" clip-rule="evenodd" d="M396.341 70.4528H0.341309V65.7572H396.341V70.4528Z" fill="#0082C8"/>
</svg>
