<svg width="336" height="99" viewBox="0 0 336 99" fill="none" xmlns="http://www.w3.org/2000/svg">
<path d="M170.602 84.0448L167.766 92.613L150.168 92.6102C144.25 92.6093 140.459 87.4089 142.402 81.8676L149.065 61.735L154.521 45.2486C155.83 41.3705 159.302 38.7976 163.414 38.7976H185.577L182.742 47.3631H164.676C163.496 47.3631 162.742 47.9104 162.417 48.9861L151.697 81.3773C151.109 82.82 152.028 84.0443 153.528 84.0443H170.602V84.0448Z" fill="#0082C8"/>
<path fill-rule="evenodd" clip-rule="evenodd" d="M157.911 80.9984H154.867L165.01 50.3481H168.054L157.911 80.9984Z" fill="#0082C8"/>
<path d="M243.757 84.0443L240.922 92.6106H223.335C217.418 92.6106 213.626 87.4093 215.57 81.868L223.96 56.5139L227.689 45.2491C228.998 41.371 232.469 38.7981 236.582 38.7981C241.229 38.7981 245.875 38.7981 250.522 38.7981C256.481 38.7981 260.181 43.933 258.325 49.5387L253.429 64.3325C252.388 67.4787 250.257 69.5585 247.116 70.4738L226.483 76.4866L224.754 81.7121C224.424 83.0047 225.313 84.0448 226.696 84.0448L243.757 84.0443ZM248.63 47.3635H237.844C236.725 47.3635 235.989 47.8556 235.639 48.8233L229.737 66.6554L243.924 62.521C244.745 62.2819 245.236 61.7693 245.48 61.0314L249.551 48.7287C249.754 48.1176 249.362 47.3635 248.63 47.3635Z" fill="#0082C8"/>
<path d="M192.673 63.4245L185.848 84.0443H198.002C199.184 84.0443 199.909 83.499 200.262 82.4307L206.105 64.7898C206.156 64.0188 206.081 63.4245 205.12 63.4245H192.673ZM195.507 54.8592H207.178C212.19 54.8592 215.669 58.5085 215.339 63.4245C215.292 64.1273 215.124 64.8501 214.877 65.5969L208.325 85.395C206.925 89.6257 202.877 92.6098 198.425 92.6098L173.881 92.6106L191.69 38.7981H220.611L217.776 47.3635H197.988L195.507 54.8592Z" fill="#0082C8"/>
<path d="M267.964 38.7981H288.663C294.621 38.7981 298.321 43.9329 296.466 49.5389L291.57 64.3325C290.529 67.4787 288.398 69.5585 285.256 70.4738L264.624 76.4866L259.287 92.6106H250.155L267.964 38.7981ZM267.877 66.6554L282.065 62.521C282.885 62.2819 283.376 61.7693 283.62 61.0314L287.692 48.7287C287.894 48.1176 287.502 47.3635 286.771 47.3635H274.262L267.877 66.6554Z" fill="#0082C8"/>
<path d="M123.608 92.6106L132.033 67.1532L114.565 78.1859L109.791 92.6106H100.658L118.468 38.7981H127.6L118.381 66.6554L135.85 55.6229L141.418 38.7981H150.55L132.741 92.6106H123.608Z" fill="#0082C8"/>
<path fill-rule="evenodd" clip-rule="evenodd" d="M127.55 32.147H145.87L139.86 21.2209L126.265 29.8115L127.55 32.147Z" fill="#0082C8"/>
<path fill-rule="evenodd" clip-rule="evenodd" d="M111.692 13.2755L85.4353 92.6106H94.5681L120.825 13.2755H111.692Z" fill="#0082C8"/>
<path d="M54.741 52.6973C50.904 48.9719 46.4972 45.3475 41.468 41.8528L43.1474 39.0746C43.2077 38.9834 43.2643 38.89 43.3168 38.7943L43.3172 38.7938C48.327 42.264 52.7512 45.8628 56.6379 49.5648L54.741 52.6973Z" fill="#0082C8"/>
<path d="M71.9596 57.4042C73.4007 59.354 74.7524 61.3533 76.0105 63.4C77.8802 66.4419 79.5395 69.5819 80.9737 72.8125L81.0032 72.8784L81.2754 73.5587L79.4717 78.9586L77.4471 73.9019C76.0933 70.8608 74.5322 67.9084 72.7765 65.0524C71.8804 63.5946 70.9322 62.1595 69.9338 60.7494L71.9596 57.4042Z" fill="#0082C8"/>
<path d="M46.5618 33.4275C49.0945 35.1729 51.5675 37.0042 53.9617 38.9265C56.0182 40.5772 58.0193 42.2968 59.9541 44.0873L58.0625 47.2112C56.0238 45.2955 53.9035 43.4609 51.7157 41.7047C49.4449 39.8817 47.1049 38.1449 44.711 36.4888L46.5618 33.4275Z" fill="#0082C8"/>
<path d="M107.979 15.2926L82.3898 92.6106H76.2519L75.9344 90.8705C74.4413 82.6912 71.3837 74.5606 66.3257 66.7076L68.395 63.2905C74.0101 71.5188 77.5021 80.0539 79.3242 88.6583L103.605 15.2926H107.979Z" fill="#0082C8"/>
<path d="M44.6586 83.1439C42.6914 86.524 41.1367 89.9367 37.7603 92.2426C34.3388 94.5788 29.6003 95.5931 25.6636 96.3219C22.5583 96.8967 11.704 98.2723 5.46477 98.0748C1.97681 97.9645 0.816891 98.011 0.550647 94.9146C0.468694 93.9589 0.474211 92.9785 0.475921 92.489C0.496445 86.1785 9.22165 88.2919 13.1492 88.2879C21.4522 88.2793 36.0679 88.8501 41.2216 80.7224L86.9653 5.06056L90.5024 7.31921L44.6586 83.1439Z" fill="#0082C8"/>
<path d="M89.6134 14.4299C91.5805 11.0499 93.1352 7.63672 96.5116 5.33073C99.9331 2.99454 104.672 1.98032 108.608 1.2516C111.714 0.676781 122.568 -0.698601 128.807 -0.501396C132.295 -0.391106 133.455 -0.437218 133.721 2.65889C133.804 3.61459 133.798 4.59518 133.796 5.08479C133.776 11.3953 125.05 9.28194 121.123 9.2855C112.82 9.29405 98.2044 8.72326 93.0503 16.851L47.3066 92.5128L43.7695 90.2542L89.6134 14.4299Z" fill="#0082C8"/>
<path fill-rule="evenodd" clip-rule="evenodd" d="M24.436 25.4425L23.3518 27.6624C21.0877 31.6912 37.9694 41.7471 40.4327 37.3642L42.3612 34.2087C43.4836 32.3725 40.4526 28.5058 35.7413 25.6646C31.0298 22.8239 26.3548 22.0427 25.2995 23.9205C24.2443 25.7983 27.2081 29.6234 31.9196 32.4641C34.8355 34.2225 37.7364 35.191 39.7751 35.2294C35.7078 35.4257 28.8685 32.146 25.9674 28.2711C25.2275 27.3075 24.6188 26.2927 24.436 25.4425Z" fill="#0082C8"/>
<path d="M288.299 92.6106L298.517 61.7355L303.974 45.2491C305.283 41.371 308.754 38.7981 312.867 38.7981H335.029L332.194 47.3635H314.129C312.948 47.3635 312.195 47.9108 311.869 48.9865L297.432 92.6106H288.299Z" fill="#0082C8"/>
<path fill-rule="evenodd" clip-rule="evenodd" d="M303.521 92.6106H300.476L314.463 50.348H317.507L303.521 92.6106Z" fill="#0082C8"/>
</svg>
