<svg width="27" height="27" viewBox="0 0 27 27" fill="none" color="#0082C8" xmlns="http://www.w3.org/2000/svg">
<path d="M18.5731 25.8433C18.6807 25.85 18.7893 25.85 18.8643 25.85H18.873C19.9222 25.85 20.7855 25.5109 21.5001 24.7869L21.5145 24.7724L21.5281 24.7572C21.8306 24.4197 22.1583 24.1129 22.5031 23.8013L22.5031 23.8014L22.5105 23.7945L22.6316 23.6828L22.6386 23.6763C22.8178 23.5113 23.0054 23.3384 23.1913 23.1491C23.5528 22.7913 23.8514 22.3188 23.85 21.7418C23.8485 21.1582 23.541 20.6872 23.1671 20.3358C23.1665 20.3353 23.166 20.3348 23.1655 20.3343L20.207 17.5312C19.966 17.2857 19.4905 16.9143 18.8354 16.9143C18.1611 16.9143 17.6655 17.3146 17.4387 17.5295L15.5994 19.2721L16.1402 19.8429L15.5994 19.2721C15.5291 19.3388 15.4609 19.3908 15.3666 19.3908C15.333 19.3908 15.2897 19.3857 15.2193 19.3549C15.2094 19.3492 15.1955 19.3413 15.1792 19.3326C14.9956 19.2263 14.7924 19.1301 14.6183 19.0476L14.6011 19.0395L14.6011 19.0395C11.7708 17.6986 9.08669 15.1642 7.84891 12.3468L7.84583 12.3381C7.81292 12.2379 7.81397 12.2031 7.81521 12.1929L7.81524 12.1927C7.81544 12.1909 7.81602 12.1859 7.82221 12.174C7.82932 12.1604 7.8504 12.1255 7.90568 12.0731L7.91602 12.0633C8.39575 11.6547 8.83427 11.239 9.28092 10.8058C9.3887 10.707 9.49288 10.6071 9.59013 10.5139L9.59337 10.5108C9.64504 10.4613 9.69485 10.4135 9.74496 10.3661C10.109 10.0211 10.4379 9.55307 10.4379 8.95924C10.4379 8.3654 10.109 7.89736 9.74496 7.5524C9.42593 7.25013 9.10189 6.93542 8.77334 6.61633C8.12717 5.98878 7.46359 5.34431 6.78649 4.74429C6.49199 4.46834 6.02393 4.15 5.41186 4.15C4.86651 4.15 4.39426 4.40222 4.02949 4.72667L4.01949 4.73556L4.00978 4.74476L2.17588 6.48234C1.58338 7.04371 1.24464 7.72855 1.17177 8.53637L1.17176 8.53637L1.1715 8.53948C1.07576 9.6461 1.30051 10.771 1.82941 12.113C2.68486 14.3026 3.9701 16.3214 5.85337 18.4721L5.85336 18.4721L5.85606 18.4751C8.15575 21.0761 10.9248 23.1296 14.0764 24.5752L14.08 24.5768C15.2125 25.0899 16.8141 25.7364 18.5731 25.8433ZM18.5731 25.8433C18.5735 25.8433 18.5739 25.8433 18.5742 25.8433L18.6257 24.9949L18.5721 25.8432C18.5724 25.8432 18.5728 25.8433 18.5731 25.8433ZM7.85959 12.1101C7.86 12.1098 7.86098 12.1091 7.86246 12.1079L7.8594 12.1103L7.85959 12.1101Z" stroke="currentColor" stroke-width="1.7"/>
<path d="M20.6867 15.0205L20.6867 15.0206L20.6907 15.0199C21.1614 14.9332 21.4529 14.4369 21.3812 13.9349L21.3811 13.9342C21.0818 11.94 20.2503 10.1204 18.9793 8.67772C17.7082 7.23491 16.1019 6.28756 14.3376 5.94641L14.3376 5.94641L14.3367 5.94624C13.8642 5.85926 13.4414 6.21571 13.3631 6.71481C13.2854 7.21011 13.5704 7.71402 14.0421 7.80107C15.4571 8.07088 16.7448 8.83137 17.7748 10.0006C18.8048 11.1698 19.4726 12.6353 19.717 14.2506C19.7836 14.7031 20.1322 15.034 20.5463 15.034C20.5934 15.034 20.6356 15.0279 20.6735 15.0224C20.6779 15.0218 20.6823 15.0211 20.6867 15.0205Z" fill="currentColor" stroke="currentColor" stroke-width="0.2"/>
<path d="M13.5718 1.36029L13.5718 1.36029L13.5716 1.36165C13.4997 1.86497 13.7923 2.35295 14.2606 2.44634L14.2606 2.44634L14.2613 2.44646C16.7969 2.9344 19.1117 4.29968 20.9546 6.38532C22.7974 8.47713 23.9978 11.1083 24.4289 13.9952C24.4954 14.4478 24.8442 14.7787 25.2583 14.7787C25.3054 14.7787 25.3476 14.7726 25.3855 14.7671C25.3899 14.7665 25.3943 14.7659 25.3986 14.7653L25.3986 14.7653L25.4015 14.7648C25.8671 14.6852 26.1654 14.1884 26.0875 13.6911C25.596 10.4192 24.2373 7.44015 22.1481 5.06867C20.0588 2.6971 17.4311 1.15137 14.5412 0.591977C14.0713 0.497242 13.6497 0.863577 13.5718 1.36029Z" fill="currentColor" stroke="currentColor" stroke-width="0.2"/>
</svg>
