<svg width="480" height="71" viewBox="0 0 480 71" fill="none" xmlns="http://www.w3.org/2000/svg">
<path fill-rule="evenodd" clip-rule="evenodd" d="M479.002 0.956324H0.00167847V5.65198H479.002V0.956324Z" fill="#0082C8"/>
<path fill-rule="evenodd" clip-rule="evenodd" d="M457.002 65.7572H0.00167847V70.4528H457.002V65.7572Z" fill="#0082C8"/>
<path d="M73.7932 39.7907C71.8954 41.6359 69.3691 42.6901 66.6226 42.6901C62.7837 42.6901 60.6553 40.1857 61.2516 36.6272C61.9751 32.3105 65.8865 28.7185 70.8835 28.7185C73.5644 28.7185 75.0533 29.7073 75.9958 31.1897L80.194 28.2571C79.0474 25.6212 76.6762 23.7757 72.0434 23.7757C63.7036 23.7757 57.0889 29.6741 55.8571 37.0222C54.5869 44.6015 59.7709 47.6332 65.5624 47.6332C70.0628 47.6332 73.8307 45.8866 76.3021 42.9866L73.7932 39.7907ZM92.0709 47.2373H97.2004L105.567 24.1711H85.0491L76.6822 47.2373H81.8117L88.4512 28.9495H98.7102L92.0709 47.2373ZM104.008 37.4176C103.031 43.2503 106.433 47.6332 112.853 47.6332C120.498 47.6332 127.559 42.0313 128.913 33.9581C129.918 27.9607 126.614 23.7757 120.129 23.7757C111.094 23.7757 104.991 31.5524 104.008 37.4176ZM109.409 36.9896C110.171 32.4422 114.237 28.7185 118.737 28.7185C122.411 28.7185 124.021 31.3548 123.502 34.452C122.762 38.8678 118.778 42.6901 114.245 42.6901C110.869 42.6901 108.823 40.4827 109.409 36.9896ZM132.478 47.2373L135.117 39.9882H139.584C146.038 39.9882 151.614 37.1217 152.62 31.1243C153.249 27.3674 151.898 24.1711 145.313 24.1711H135.716L127.349 47.2373H132.478ZM143.718 28.9495C146.531 28.9495 147.479 30.0034 147.231 31.4865C146.861 33.6944 144.985 35.2103 141.245 35.2103H136.844L139.118 28.9495H143.718ZM153.547 28.9495H160.959L154.32 47.2373H159.449L166.089 28.9495H173.535L175.263 24.1711H155.274L153.547 28.9495ZM173.25 47.2373L189.441 33.7602L184.535 47.2373H189.664L198.032 24.1711H193.762L177.626 37.7142L182.544 24.1711H177.414L169.047 47.2373H173.25ZM193.967 47.2373H204.06C210.017 47.2373 214.943 45.2937 215.937 39.3618C216.329 37.0222 215.624 35.7047 214.515 35.0123C216.451 34.1224 218.349 32.2774 218.752 29.872C219.382 26.1155 217.788 24.1711 212.692 24.1711H202.334L193.967 47.2373ZM207.234 37.7804C209.385 37.7804 210.813 38.1428 210.565 39.6255C210.233 41.6026 208.534 42.4593 205.258 42.4593H200.824L202.534 37.7804H207.234ZM210.435 28.9495C212.818 28.9495 213.479 29.542 213.286 30.696C213.021 32.2774 211.614 33.1669 209.331 33.1669H204.201L205.736 28.9495H210.435ZM231.826 47.2373H236.955L245.322 24.1711H240.193L236.92 33.233H226.628L229.901 24.1711H224.771L216.404 47.2373H221.534L224.867 38.011H235.159L231.826 47.2373ZM238.974 47.2373H244.666L248.098 42.9538H257.629L257.97 47.2373H263.1L261.307 24.1711H257.501L238.974 47.2373ZM256.832 31.9147L257.327 38.6371H251.469L256.832 31.9147ZM278.885 47.2373H284.015L292.382 24.1711H282.057C276 24.1711 270.815 27.0713 269.881 32.6397C269.373 35.6715 270.62 37.5167 272.853 38.6045L262.967 47.2373H269.155L277.878 39.6255H281.65L278.885 47.2373ZM278.314 34.8476C276.196 34.8476 275 33.8919 275.315 32.0137C275.679 29.839 277.715 28.9495 280.66 28.9495H285.525L283.378 34.8476H278.314ZM299.873 47.2373H326.977L335.344 24.1711H330.214L323.575 42.4593H317.717L324.357 24.1711H319.227L312.588 42.4593H306.73L313.37 24.1711H308.24L299.873 47.2373ZM331.279 47.2373H336.408L339.024 40.1199L342.108 37.9121L346.535 47.2373H352.658L346.797 34.8144L360.363 24.1711H353.215L341.458 33.299L344.776 24.1711H339.646L331.279 47.2373ZM355.494 37.4176C354.517 43.2503 357.919 47.6332 364.339 47.6332C371.984 47.6332 379.045 42.0313 380.399 33.9581C381.404 27.9607 378.1 23.7757 371.614 23.7757C362.579 23.7757 356.477 31.5524 355.494 37.4176ZM360.895 36.9896C361.657 32.4422 365.723 28.7185 370.223 28.7185C373.897 28.7185 375.507 31.3548 374.988 34.452C374.247 38.8678 370.264 42.6901 365.731 42.6901C362.355 42.6901 360.309 40.4827 360.895 36.9896ZM392.436 47.2373H397.566L405.933 24.1711H388.559L387.593 26.7743C382.123 41.4382 380.485 42.9208 377.115 42.4926L375.393 47.2373C375.813 47.3033 376.733 47.3363 377.362 47.3363C383.219 47.3363 386.646 42.69 390.757 31.783L391.768 29.1139H399.015L392.436 47.2373ZM399.585 47.2373H405.277L408.709 42.9538H418.239L418.58 47.2373H423.71L421.917 24.1711H418.111L399.585 47.2373ZM417.442 31.9147L417.937 38.6371H412.079L417.442 31.9147Z" fill="#0082C8"/>
</svg>
